# xmcd
#
# Track frame offsets:
#	150
#	19050
#	34198
#	55059
#	75842
#	99080
#	118818
#	139657
#	156327
#	179263
#	197640
#	214602
#	231286
#	250092
#	267566
#	286305
#	303969
#
# Disc length: 4330 seconds
#
# Revision: 0
# Processed by: cddbd v1.5.2PL0 Copyright (c) Steve Scherf et al.
# Submitted via: dBpowerAMP V4.0
#
DISCID=e110e811
DTITLE=Varios - Chatarritas 2007
DYEAR=2007
DGENRE=Blues
TTITLE0=Todo lo que hago es por tí
TTITLE1=No dejemos que muera el amor
TTITLE2=Angel
TTITLE3=Regresa a mi
TTITLE4=Mi historia entre tus dedos
TTITLE5=Te quise olvidar
TTITLE6=Otra como tú
TTITLE7=Solo llamaba para decir te quiero
TTITLE8=Camas de rosas
TTITLE9=Por siempre tu
TTITLE10=Melodia desencadenada
TTITLE11=A quién
TTITLE12=Entra en mi vida
TTITLE13=Luka
TTITLE14=Imaginame sin ti
TTITLE15=Me dedique a perderte
TTITLE16=No basta
EXTD=Chatarritas en español 2007
EXTT0=
EXTT1=
EXTT2=
EXTT3=
EXTT4=
EXTT5=
EXTT6=
EXTT7=
EXTT8=
EXTT9=
EXTT10=
EXTT11=
EXTT12=
EXTT13=
EXTT14=
EXTT15=
EXTT16=
PLAYORDER=
